<?xml version="1.0" standalone="no"?>
<!DOCTYPE svg PUBLIC "-//W3C//DTD SVG 20010904//EN"
 "http://www.w3.org/TR/2001/REC-SVG-20010904/DTD/svg10.dtd">
<svg version="1.0" xmlns="http://www.w3.org/2000/svg"
 width="700.000000pt" height="700.000000pt" viewBox="0 0 700.000000 700.000000"
 preserveAspectRatio="xMidYMid meet">
<metadata>
Created by potrace 1.14, written by Peter Selinger 2001-2017
</metadata>
<g transform="translate(0.000000,700.000000) scale(0.100000,-0.100000)"
fill="#000000" stroke="none">
<path d="M944 5642 c-79 -3 -82 -4 -92 -30 -6 -15 -38 -112 -72 -217 -33 -104
-92 -284 -130 -400 -37 -115 -137 -419 -220 -675 -83 -256 -168 -517 -189
-580 -98 -296 -153 -471 -149 -475 2 -2 267 -5 588 -7 322 -1 590 -4 597 -6 7
-2 -9 -45 -43 -113 -30 -60 -54 -111 -54 -113 0 -2 -47 -101 -105 -220 -58
-119 -124 -256 -146 -304 -23 -48 -65 -136 -94 -197 -29 -60 -84 -175 -122
-255 -39 -80 -89 -185 -113 -235 -24 -49 -76 -160 -117 -245 -41 -85 -75 -159
-76 -163 -1 -5 8 -15 20 -23 20 -14 23 -13 55 19 27 28 285 296 458 477 25 26
135 141 245 255 110 115 218 227 240 250 22 23 123 129 225 235 102 106 208
216 235 245 101 105 412 430 478 499 351 365 599 623 731 761 83 86 115 128
89 112 -5 -3 -96 -8 -203 -11 -205 -7 -347 -12 -568 -21 -73 -3 -217 -8 -320
-10 -103 -3 -201 -8 -219 -10 -27 -4 -31 -2 -26 13 3 9 9 22 13 27 4 6 47 87
95 180 48 94 102 197 120 230 18 33 65 123 105 200 40 77 90 172 110 210 21
39 65 122 97 185 166 319 197 376 206 388 5 7 8 15 5 18 -6 5 -1517 11 -1654
6z"/>
<path d="M4790 5380 c-488 -74 -882 -307 -1210 -716 -66 -82 -176 -273 -238
-414 -32 -71 -85 -237 -98 -303 -2 -10 -6 -27 -9 -37 -3 -10 -8 -31 -10 -46
-2 -16 -6 -40 -9 -54 -27 -121 -27 -511 -1 -610 2 -8 6 -33 10 -54 17 -117 85
-333 145 -461 44 -93 173 -309 200 -335 3 -3 21 -25 40 -50 229 -298 607 -545
978 -640 186 -47 262 -55 492 -54 157 2 204 6 312 28 375 77 685 242 948 506
506 507 687 1233 479 1925 -16 55 -34 109 -39 120 -5 11 -20 47 -34 80 -83
203 -228 417 -401 590 -289 291 -619 456 -1055 530 -88 15 -387 12 -500 -5z"/>
</g>
</svg>
